<svg id="Component_38_6" data-name="Component 38 – 6" xmlns="http://www.w3.org/2000/svg" width="43" height="43" viewBox="0 0 43 43">
  <g id="Buy">
    <g id="Group_35" data-name="Group 35">
      <rect id="Rectangle_11" data-name="Rectangle 11" width="30" height="26" rx="13" transform="translate(7 11)" fill="rgba(0,0,0,0.68)"/>
      <path id="Path_97" data-name="Path 97" d="M18.5,0A18.5,18.5,0,1,1,0,18.5,18.5,18.5,0,0,1,18.5,0Z" fill="#323641"/>
    </g>
  </g>
  <g id="Group_161" data-name="Group 161" transform="translate(10 12)">
    <path id="Path_86" data-name="Path 86" d="M19.5,5.224a7.947,7.947,0,0,1-2.088.513,3.363,3.363,0,0,0,1.6-1.806,7.786,7.786,0,0,1-2.309.792,3.941,3.941,0,0,0-4.372-.649A3.156,3.156,0,0,0,10.506,7.7,10.759,10.759,0,0,1,3.013,4.29a3,3,0,0,0-.492,1.641A3.19,3.19,0,0,0,4.137,8.647a3.944,3.944,0,0,1-1.646-.408V8.28a3.375,3.375,0,0,0,2.916,3.2,4.065,4.065,0,0,1-1.642.056,3.613,3.613,0,0,0,3.4,2.267,7.905,7.905,0,0,1-5.382,1.352,11.154,11.154,0,0,0,5.572,1.467c6.688,0,10.345-4.973,10.345-9.286,0-.14,0-.282-.011-.421A7.016,7.016,0,0,0,19.5,5.225Z" transform="translate(-1.779 -3.688)" fill="#8c9eff"/>
  </g>
</svg>
