<svg xmlns="http://www.w3.org/2000/svg" width="181.426" height="106.994" viewBox="0 0 181.426 106.994">
  <g id="Icon2" transform="translate(0 -195.708)">
    <g id="Group_413" data-name="Group 413" transform="translate(0 195.708)">
      <path id="Path_148" data-name="Path 148" d="M402.534,644.013H356.8v21.745l45.73-8.267Z" transform="translate(-288.954 -558.764)" fill="#f6d869"/>
      <path id="Path_149" data-name="Path 149" d="M74.835,441.464H89.269A129,129,0,0,0,119.1,424.278q3.337-2.573,6.5-5.353v-6.42a124.512,124.512,0,0,1-45.117,27.186Q77.682,440.647,74.835,441.464Z" transform="translate(-60.604 -371.28)" fill="#f6d869"/>
      <path id="Path_150" data-name="Path 150" d="M179.4,266.058c-.563-.32-16.442-9.535-21.079-12.662a148.772,148.772,0,0,1-20.759-16.641q-2.325-2.263-4.536-4.661a134.472,134.472,0,0,1-19.447-27.2v-9.186h-5.665V203.6h-4.252v-1.84a1.431,1.431,0,0,0-.376-1.012,1.657,1.657,0,0,0-2.306,0,1.43,1.43,0,0,0-.377,1.012v1.84H91.836v-1.84a1.429,1.429,0,0,0-.376-1.012,1.657,1.657,0,0,0-2.306,0,1.43,1.43,0,0,0-.377,1.012v1.84H80.01v-1.84a1.43,1.43,0,0,0-.377-1.012,1.657,1.657,0,0,0-2.306,0,1.43,1.43,0,0,0-.376,1.012v1.84H73.672a1.632,1.632,0,0,0-.157-.136v-7.757H67.85v12.5c-.14.211-.279.424-.421.634a214.375,214.375,0,0,1-22.872,25.676,244.585,244.585,0,0,1-24.642,18.956c-5.966,4.077-12.047,7.981-18.148,11.852A3.8,3.8,0,0,0,0,268.541v5.76a3.8,3.8,0,0,0,3.8,3.8H177.622a3.8,3.8,0,0,0,3.8-3.8V269.42A3.887,3.887,0,0,0,179.4,266.058ZM67.85,234.156v34.588H5.251l.973-.62.528-.336c12.238-7.806,24.4-15.882,35.586-25.121a173.649,173.649,0,0,0,15.411-14.282c3.05-3.212,5.953-6.572,8.675-10.071q.723-.929,1.426-1.872h0v17.714Zm33.8,34.588H79.777V230.675a10.877,10.877,0,0,1,1.805-6.016,200.542,200.542,0,0,0,20.07,17.447v26.638h0Zm0-32.605A194.49,194.49,0,0,1,85,221.352a10.936,10.936,0,0,1,16.655,9.323Zm11.928,32.605V250.509a121.6,121.6,0,0,0,24.037,12.311,159.914,159.914,0,0,0,21.066,5.9Zm24.307-10.877a99.387,99.387,0,0,1-13.406-6.281c-3.233-1.8-6.388-3.751-9.475-5.8q-.716-.474-1.426-.955v-30.46a151.2,151.2,0,0,0,29.362,33.951q4.159,3.779,8.592,7.243a110.662,110.662,0,0,0,14.1,9.612l.343.22C156.464,263.461,146.989,261.282,137.887,257.867Z" transform="translate(0 -195.708)" fill="#f6d869"/>
    </g>
  </g>
</svg>
