<svg xmlns="http://www.w3.org/2000/svg" width="96.428" height="96.429" viewBox="0 0 96.428 96.429">
  <g id="Icon3" transform="translate(0 0)">
    <g id="Group_408" data-name="Group 408" transform="translate(21.071 0)">
      <g id="Group_407" data-name="Group 407">
        <path id="Path_145" data-name="Path 145" d="M185.326,50.308a46.6,46.6,0,0,0-11.231-19.182l1.549-1.549a2.782,2.782,0,0,0,0-3.934l-14.05-14.05a2.782,2.782,0,0,0-3.934,0l-1.549,1.549A46.454,46.454,0,0,0,114.083,1.008a2.782,2.782,0,0,0-.066,5.427l2.723.647A40.866,40.866,0,0,1,136.2,17.951l7.552,7.552-.843.843a2.782,2.782,0,0,0,0,3.934l14.05,14.05a2.782,2.782,0,0,0,3.934,0l.843-.843,7.552,7.552A40.867,40.867,0,0,1,180.153,70.5l.647,2.723a2.782,2.782,0,0,0,2.706,2.138h.034a2.782,2.782,0,0,0,2.687-2.2A46.593,46.593,0,0,0,185.326,50.308Z" transform="translate(-111.879 0)" fill="#f6d869"/>
      </g>
    </g>
    <g id="Group_410" data-name="Group 410" transform="translate(55.635 57.368)">
      <g id="Group_409" data-name="Group 409">
        <path id="Path_146" data-name="Path 146" d="M317.654,318.861a8.007,8.007,0,0,0-8-8h-.348v-3.477a2.782,2.782,0,0,0-5.563,0v3.477h-5.563a2.782,2.782,0,0,0-2.782,2.782v20.863a2.782,2.782,0,0,0,2.782,2.782h5.563v3.477a2.782,2.782,0,0,0,5.563,0V337.29h.348a7.991,7.991,0,0,0,6.055-13.213A7.96,7.96,0,0,0,317.654,318.861Zm-8,12.865h-8.693v-4.868h8.693a2.434,2.434,0,1,1,0,4.868Zm0-10.431h-8.693v-4.868h8.693a2.434,2.434,0,1,1,0,4.868Z" transform="translate(-295.4 -304.605)" fill="#f6d869"/>
      </g>
    </g>
    <g id="Group_412" data-name="Group 412" transform="translate(0 35.057)">
      <g id="Group_411" data-name="Group 411">
        <path id="Path_147" data-name="Path 147" d="M49.007,186.14.815,234.333a2.782,2.782,0,0,0,0,3.934l8.43,8.43a2.781,2.781,0,0,0,3.934,0L61.371,198.5Z" transform="translate(0 -186.14)" fill="#f6d869"/>
      </g>
    </g>
  </g>
</svg>
