<svg xmlns="http://www.w3.org/2000/svg" xmlns:xlink="http://www.w3.org/1999/xlink" width="2304.418" height="794.623" viewBox="0 0 2304.418 794.623">
  <defs>
    <linearGradient id="linear-gradient" x1="0.271" y1="0.338" x2="0.58" y2="0.245" gradientUnits="objectBoundingBox">
      <stop offset="0" stop-color="#10223c" stop-opacity="0"/>
      <stop offset="1" stop-color="#0b192d"/>
    </linearGradient>
  </defs>
  <path id="Footerwave" d="M0,685l42.728-19.314c42.568-20.771,128.5-57.212,213.319-38.992,85.3,18.221,171.231,98.391,256.046,38.992,85.3-57.212,171.231-253.994,256.047-291.528,85.3-38.992,171.231,77.619,256.046,155.239,85.3,79.077,171.231,115.518,256.046,97.3,85.3-18.221,171.231-98.391,256.047-58.306,85.3,40.085,171.231,193.138,256.046,272.215,85.3,77.619,171.231,77.619,256.046-19.678,85.3-95.84,171.231-292.622,212.839-388.462l43.208-97.3V101.943H0Z" transform="translate(0 -101.943)" fill="url(#linear-gradient)"/>
</svg>
