<svg xmlns="http://www.w3.org/2000/svg" xmlns:xlink="http://www.w3.org/1999/xlink" width="2776" height="1112" viewBox="0 0 2776 1112"><defs><style>.a{fill:#fff;}.b{opacity:0.14;isolation:isolate;clip-path:url(#a);}.c,.d{fill:none;stroke:#f0b90b;}.c{stroke-miterlimit:10;}</style><clipPath id="a"><rect class="a" width="2776" height="1112" transform="translate(5774 2711)"/></clipPath></defs><g class="b" transform="translate(-5774 -2711)"><g transform="translate(5411.298 2051.01)"><path class="c" d="M2404.146,1251.254c.217,41,86.573,87.1,123.463,110.877,72.939,47.014,148.8,90.429,223.954,134.538s150.517,88.1,222.184,136.524c46.532,31.434,101.211,66.839,132.769,111.725,67.231,95.655-144.74,81.45-199.647,83.542-139.682,5.345-299.9,2.9-430.825,52.718-78.159,29.737-109.327,79.609-92.54,152.294,5.413,23.638,21.428,50.84,7.859,73.87-14.487,24.6-47.818,38.789-75.481,48.306-100.9,34.675-216.907,38.693-323.663,43.045-115.117,4.783-231.314,3.384-345.619,3.754-48.467.156-99.086,15.543-145.242,28.052-60.506,16.393-120.291,34.806-180.3,52.61-132.012,39.075-268.049,80.231-407.707,90.152-87.466,6.218-183.063-2.187-251.008-56.269-34.115-27.147-51.972-67.521-71.694-103.379-23.876-43.319-46.8-87.058-72.221-129.7-81.88-137.324-198.781-271.517-388.527-278.26-28.705-1.016-56.9,2.3-85.465,2.918-18.194.383-34.385-3.5-41.15-20.324-17-42.2,36.442-108.808,58.355-142.288,47.98-73.285,102.089-143.285,152.77-215.093,33.533-47.493,91.578-112.4,92.187-170.1.541-51.414-76.834-88.577-118.958-113.9-39.472-23.711-110.991-56.892-115.319-105.125-2.1-23.387,15.353-42.769,33.575-57.812,31.937-26.305,68.73-44.858,97.462-74.874,47.114-49.238,86.479-116.986,80.08-183.335-4.437-45.975-34.115-76.082-71.87-104.862-15.866-12.1-28.746-20.661-29.584-40.307-1.353-31.2,12.472-64.208,23.858-93.132,40.745-103.508,98.613-203.6,162.995-297.057C401,143.661,435.755,97.1,478.406,57.26,506.346,31.1,544.019-.036,586.62,0c49.333,0,101.534,15.735,149.488,27.5,89.573,21.988,178.053,47.407,266.182,73.486Q1308,191.49,1607.967,296.651c140.857,49.466,284.705,99.008,417.136,164.771a472.838,472.838,0,0,1,72.8,44.97c24.147,17.856,54.109,25.841,84.49,31.793,188.569,36.959,395.157,8.586,584.507-9.207,48.062-4.508,96.123-9.04,144.321-12.194,41.434-2.715,91.039-10.5,131.308,1.2,79.35,23.017,9.982,107.851-19.343,142.414C2919.939,782.1,2786.72,885.075,2663.246,990.2c-58.708,50.064-117.861,100-173.378,152.893C2460.958,1170.591,2403.958,1215.31,2404.146,1251.254Z" transform="translate(3795.189 2375.016) rotate(180)"/><path class="c" d="M2264.337,1184.12c31.648,43.385,87.175,75.451,133.267,105.629,66.328,43.444,134.742,84.474,202.125,126.688,63.716,39.922,127.567,80.29,186.572,125.623,35.979,27.644,81.124,60.7,98.166,101.589,36.967,88.622-161.908,75.176-211,77.494-122.058,5.737-260.431,7.051-373.36,53.714-70.511,29.138-99.479,77.458-84.441,144.542,5.2,23.21,14.565,43.026,2.707,66.116-13.713,26.723-45.252,43.385-74.166,55.145-90.571,36.846-197.63,44.675-295.81,51.189-101.427,6.729-207.1,11.469-305.273,6.55-39.255-1.96-84.44,9.166-123.3,17.7-59.777,13.147-118.944,28.308-178.432,42.416-120.881,28.684-244.9,56.315-370.653,59.46-90.788,2.271-185.449-10.039-260.982-57.619-76.547-48.248-110.512-123.042-152.97-194.142-73.313-122.922-172.331-272.377-341.942-298.348-25.718-3.944-50.436-1.8-76.128-2.773-13.212-.491-28.25-2.044-34.951-13.553-17.394-29.879,30.273-84.511,46.312-107.4,44.317-63.247,94.146-123.4,140.588-185.428,36.889-49.253,83.641-103.979,97.909-162.362,17.314-70.844-95.81-121.261-135.594-171.147C84.01,938.7,214.677,889.412,279.1,848.168c73.979-47.352,135.039-133.739,68.724-207-25.367-28.018-56.583-44.713-67.912-81.27-17.719-57.176-4.318-122.515,10.058-179.035,21.652-84.964,55.935-169.008,102.524-245.8C425.872,80.087,481.25-6.121,562.346.344,616.939,4.658,672.437,20.422,725.6,34.358c79.593,20.855,158.183,44.627,236.358,69.32,180.473,56.835,358.937,119.509,533.891,188.445,119.381,47.053,452.375,239.346,477.432,246.2,74.707,20.437,159.649,16.84,236.671,13.672,102.448-4.21,204.4-15.107,306.261-25.206,48.488-4.781,97.219-10.625,145.954-12.98,34.684-1.674,80.256-3.108,110.646,14.712,59.315,34.767-6.769,114.317-34.1,147.973-83.723,103.178-189.631,192.529-288.934,283.886-48.732,44.858-98.206,89.637-142.443,138.089C2289.5,1118.038,2244.776,1157.324,2264.337,1184.12Z" transform="translate(3690.959 2300.971) rotate(180)"/><path class="c" d="M2150.259,1065.524c86.431,86.813,198.65,152.267,301.608,224.773,51.675,36.4,84.779,87.476,129.349,130.832,23.184,22.546,52.126,51.06,56.6,82.49,11.937,84.079-167.313,72.709-220.963,75.9-103.727,6.193-220.909,10.888-315.012,53.8-57.5,26.23-85.808,69.279-75.062,125.865,4.763,25.106,12.181,46.433,0,71.083-12.344,24.97-38.058,42.6-64.1,55.806-74.831,37.993-167.826,50.14-252.078,59.19a2299.9,2299.9,0,0,1-297.933,12.313c-87.161-2.021-173.9,20.706-259.007,35.686-112.741,19.833-227.527,37.156-342.894,34.538-91.115-2.081-182.945-18.422-260.832-61.855C470.786,1921.709,423.2,1855.5,380.3,1784.061c-64.857-108.008-145.685-252.728-287.971-293.746-20.694-5.977-39.981-6.634-61.324-7.675-10.367-.5-23.754-.658-28.9-10.21-12.376-23,33.357-67.6,46.12-83.13,40.739-49.62,84.9-97,126.655-145.953,38.978-45.7,81.437-93.333,105.656-146.891,38.533-85.3-84.657-135.174-81.2-216.452,2.151-50.462,56.844-86.649,100.155-111.684,53.329-30.784,130.115-51.024,156.8-107.2,19.882-41.843-11.315-66.2-35.338-97.946-40.711-53.8-43.485-126.722-39.249-189a667.109,667.109,0,0,1,66.02-246.893c17.2-35.069,38.287-71.538,69.328-98.777C546.141,2.984,573.669-3.556,612.539,1.668,731.533,17.688,851.678,62.34,965.795,102.222c143.369,50.115,284.763,105.443,421.936,167.693,93.536,42.453,189.184,87.366,271.283,146.017,21.4,15.291,43.3,31.907,58.957,52.076,11.829,15.159,16.841,27.676,36.787,36.331,59.091,25.643,141.286,18.936,204.6,16.271,101.245-4.243,201.987-15.542,302.6-25.716,58.712-5.977,169.316-24.782,216.2,20.324,40.468,38.95-8.365,105.359-33.309,139.67-63.1,86.769-144.263,162.923-219.57,241.334-34.514,35.936-44.405,57.592-72.916,97.543-3.4,4.757-7.758,10.235-11.855,16.305-4.216,6.242-8.029,13.156-9.1,19.751C2129.158,1044,2139.648,1054.819,2150.259,1065.524Z" transform="translate(3594.7 2174.679) rotate(180)"/><path class="c" d="M1984.536,955.343c79.865,76.763,176.083,139.826,261.822,211.661,38.443,32.208,77.265,65.994,106.558,105.285,15.756,21.128,32.478,47.725,28.142,73.987-12.467,75.375-159.894,68.566-219.454,72.981-88.5,6.48-190.171,13.013-268.43,53.661-51.262,26.62-70.485,65.934-60.914,116.639,10.275,54.389-12.7,93.871-64.975,124.212-65.543,38.01-148.279,53.5-224.379,64.51a1741.55,1741.55,0,0,1-277.411,17.473c-90.329-1.532-177.843,11.845-267.574,20.542-118.972,11.521-241.761,17.2-359.392-6.412C536.113,1789.315,443.6,1744,374.257,1673.909,301.824,1600.76,265.965,1508.6,207.15,1427.675c-36.689-50.477-87.839-117.248-156.379-136.87-22.855-6.544-64.528,2.285-46.268-29.905,10.437-18.412,29.971-34.564,45.4-49.615,24.934-24.324,50.695-47.977,76.048-71.965,54.037-51.135,111.9-103.363,152.407-163.908,51.032-76.236-24.826-134.909-15.58-212.208,4.968-41.6,37.691-74.8,72.325-100.882,22.4-16.894,46.914-31.526,71.946-45.176,26.127-14.266,57.062-25.132,79.853-43.569,32.479-26.237,18.383-57.3,12.292-91.215a649.229,649.229,0,0,1-7.017-180.277C499.6,228.4,516.993,152.6,553.635,85.641c14.254-26.07,32.312-53.714,59.127-71.187S667.315-1.828,698.041,3.436c91.141,15.554,182.093,51.745,268.55,86.047,108.21,42.939,214.295,90.927,315.6,145.521,69.929,37.687,140.089,78.4,198.593,129.494,17.015,14.871,33.2,30.8,46.294,48.575,8.988,12.194,13.807,27.924,26.829,37.089,40.745,28.606,122.545,20.064,170.328,18.4,95.365-3.314,189.226-19.071,284.469-22.9,51.98-2.093,133.387-7.357,171.561,31.754,35.9,36.766,3.384,94.673-18.072,130.1-42.166,69.655-98.815,131.714-149.59,196.463-20.873,26.645-43.75,54.521-57.273,84.946C1943.318,916.037,1964.07,935.661,1984.536,955.343Z" transform="translate(3462.374 2070.154) rotate(180)"/><path class="c" d="M1848.624,821.977c63.57,67.549,140.205,127.511,204.235,196.158,37.479,40.2,102.023,107.786,73.039,164.463-31.8,62.279-142.639,63.976-206.71,68.995-76.257,5.974-165.8,14.134-231.069,53.021-20.64,12.293-38.223,28.566-45.677,50-7.979,22.937.744,43.009,1.881,65.972,2.38,48.17-30.161,86.842-73.227,113.4-60.865,37.549-136.974,55.3-208.862,67.679a1433.956,1433.956,0,0,1-247.2,20.549c-79.286-.24-157.734,1.314-237.1,3.106-103.8,2.39-209.05-1.469-309.734-25.829-99.182-24.013-189.356-69.018-260.19-135.216-69.1-64.6-115.724-143.555-156.557-223.982-23.17-45.649-62.313-113.867-117.577-136.925-24.588-10.267-48.708-9.562-22.573-36.251,32.908-33.607,77.257-60.572,115.373-89.316,54.981-41.48,111.342-83.773,157.491-133.09,29.471-31.492,42.605-62.053,40.576-102.829-1.57-31.067-8.683-61.8-5.086-92.984,8.42-73.187,73.66-123.376,131.332-170.113,37.1-30.059,70.982-52.988,90.08-95.744,22.587-50.536,32.078-105.516,47.164-157.987,16.582-57.62,35.734-117.559,71.928-168.31C692.381,11.563,731.573-8.7,790.209,3.481c91.474,18.973,181.64,65.708,262.836,108.945,82.654,43.987,163.889,93.449,232.383,153.913,36.979,32.651,62.217,70.989,95.058,106.066,41.3,44.037,134.754,27.359,190.291,23.631,92.189-6.189,382.271-52.5,355.5,97.488-11.173,62.6-55.169,120.378-87.347,175.621-13.336,22.926-32.637,50.44-35.652,76.712C1800,774.464,1829.512,801.639,1848.624,821.977Z" transform="translate(3346.104 1938.045) rotate(180)"/><path class="c" d="M1720.829,703.009c48.58,61.212,106.716,119.042,148.4,185.156,27.042,42.817,53.6,100.024,18.711,145.328-39.371,51.124-126.186,63.041-189.976,69.556-65.723,6.706-144.181,12.348-197.9,51.112-17.089,12.347-31.178,29-33.8,48.936-2.528,19.125,4.611,38.25,2.245,57.722-5.3,43.724-35.3,79.752-73.979,105.881-114.423,77.3-284.725,94.49-422.784,96.51-69.1,1-140.22-4.268-209.77-8.044-90.249-4.9-180.637-15.42-266.7-40.773-183-53.885-305.656-173.394-391.321-322.1-26.963-46.809-47.591-97.454-89.844-135.071C-7.674,937.8-2.915,923.846,19.353,906.132c34.814-27.684,77.283-48.84,115.925-71.946,54.961-32.86,111.1-66.209,159.7-105.571,33.5-27.134,57.287-53.278,64.506-93.964,5.15-29.01,3.948-58.571,7.045-87.761,5.894-55.456,26.081-110.483,61.816-156.48,28.393-36.457,62.195-69.591,97.131-101.185,45.6-40.845,85.248-84.991,118.316-131.737C689.52,92.868,753.769-26.329,861.472,5.215c118.79,34.808,230.131,123.251,306.342,208.942,25.594,28.772,46.6,64.057,81.122,85.274,51.675,31.711,104.108,30.6,165.571,30.469,92.023-.18,292.258-17.834,294.421,103.993.852,48.267-22.781,93.9-34.1,140.331C1662.07,626.222,1687.65,661.293,1720.829,703.009Z" transform="translate(3251.873 1824.813) rotate(180)"/><path class="c" d="M1608.463,610.455c48.05,79.779,155.809,210.874,73.849,299.589-43.289,46.891-119.856,64.5-184.088,75-51.689,8.492-114.026,11.682-153.081,47.683-28.706,26.469-15.963,64.992-26.961,98.128-13.649,41.084-44.981,74.691-83.48,99.954-107.587,70.606-257.179,92.274-386.6,96.885-134.413,4.778-282.516-17.566-409-60.56C281.39,1213.516,163.238,1111.984,80.61,983.4c-15.237-23.734-29.1-48.09-43.736-72.112C27.04,895.178,12.457,879.59,4.7,862.64-8.2,834.378,7,811.277,31.381,792.859c35.065-26.517,78.137-45.391,118.112-65.291,54.666-27.234,110.55-53.979,161.4-85.932,34.171-21.5,69.939-44.662,82.169-81.966,8.346-25.443,10.078-52.39,9.78-78.74-.65-56.5,2.707-102.188,32.549-153.933,49.107-84.952,124.62-161.34,204.393-224.9C702.391,52.217,801.455-25.27,892.674,8.08c81.844,29.862,129.714,101.34,183.645,159.129,26.218,28.094,55.667,53.752,90.27,73.736,43.628,25.192,84.7,35.763,136.388,39.885,87,6.941,218.178,8.744,245.071,100.959,9.93,34.031,4.26,69.281,9.469,103.753C1564.322,531.129,1584.22,570.212,1608.463,610.455Z" transform="translate(3175.689 1737.715) rotate(180)"/><path class="c" d="M1488.331,545.068c34.217,87.3,79.167,197.309-3.474,274.894-40.031,37.585-96.337,58.6-150.823,74.3-39.031,11.252-101,14.565-124.931,49.16-17.574,25.459-20.008,60.58-35.907,87.857-20.924,35.7-53.03,67.394-93.779,92.568-101.149,63-232.894,87.354-353.037,94.326C465.326,1233.3,199.7,1112.818,60.011,914.6,18.358,855.514-35.406,792.626,31.9,732.263c73.49-65.853,184.2-96.705,271.908-143.5,33.513-17.865,76.221-39.342,94.918-71.689,11.247-19.444,12.019-43.842,12.532-65.243,1.351-54.517,6.476-103.546,31.276-154.415C480.852,218.8,541.945,146.278,611.175,86.869c60.376-51.8,146.479-112.681,234.167-75.336,67.231,28.7,109.866,89.615,162.106,134.518,58.141,50.009,130.027,83.708,208.978,100.169,76.8,15.969,161.04,26.751,201.516,94.625,13.884,23.283,28.391,53.423,33.6,79.2a721.233,721.233,0,0,0,36.785,125.023Z" transform="translate(3105.522 1675.284) rotate(180)"/><path class="c" d="M1368.459,453c15.839,88.149,17.589,180.065-55.958,249.538-34.325,32.411-77.714,55.438-121.59,76.3-32.278,15.35-65.619,28.3-89.729,53.466-22.338,23.3-39.317,50.357-60.883,74.269-27.368,30.819-61.407,58.25-100.81,81.239-96.061,55.343-212.915,81.227-324.71,90.206-54.119,4.364-112.823,6.636-166.577-5.261-51.914-11.477-103.25-29.627-150.978-50.787C195.754,977.025,107.811,911.21,44.059,828,.353,770.923-23.292,715.425,33.317,657.523,97.135,592.256,197.2,556.246,279.677,513.888c56.567-29.052,119.966-57.53,130.534-119.269,8.42-49.126,15.247-95.753,37.018-142.189,32.4-68.494,80.036-130.539,140.085-182.455,54.917-47.3,124.391-87.431,202.943-62.17,62.237,20.05,110.524,64.968,164.9,97.08,60.6,35.866,127.178,55.642,197.29,71.542,63.007,14.347,122.334,36.393,163.059,83.2A226.216,226.216,0,0,1,1339.02,290.3c8.2,13.646,7.562,27.186,9.172,42.49C1352.387,373.183,1361.294,413.1,1368.459,453Z" transform="translate(3041.362 1583.828) rotate(180)"/><path class="c" d="M1244.883,349.865c-1.353,83.728-24.138,162.859-86.55,228.109-26.681,27.914-58.542,50.9-87.9,76.484-23.639,20.614-45.979,39.777-73.161,56.773-64.478,40.236-116.883,92.3-185.4,128.132-91.471,47.9-196.251,74.376-300.217,84.962-50.767,5.172-103.21,6.981-154.574,1.138-44.107-5.017-86.359-22.632-125.55-40.648-76.81-35.3-151.391-85.479-201.265-148.958C-79.7,595.91,137.095,494.155,248.364,434.569c51.172-27.41,129.363-59.156,150.326-113.451C413.674,282.331,422.8,242.886,442.1,205.3,493.935,104.35,599.159-14.381,739.391,1.425c59.993,6.753,114.678,34.188,170.7,52.606,57.678,18.968,117.2,29.541,177.147,41.145,56.028,10.837,100.682,26.26,136.869,67.61,17.3,19.743,15.768,43.385,17.31,67.61C1243.936,270.19,1245.492,310.21,1244.883,349.865Z" transform="translate(2979.214 1473.496) rotate(180)"/><path class="c" d="M1122.788,257.522C1100.265,383.9,1016.595,521.875,893.565,595.27c-144.7,86.337-301.478,159.045-474.377,179.94-80.16,9.692-167.971,14.459-243.608-17.232-57.565-24.1-124.431-60.135-156.112-110.8-77.508-123.931,94.89-222.588,193.112-279.923,52.88-30.867,120.193-60.943,160.049-106.018,23.124-26.131,34.929-60.705,53.6-89.407C482.8,84.848,575.936,14.692,691.945,2.145c53.638-5.8,107.661,1.375,160.9,7.074,54.492,5.832,109.666,9,163.815,17.13,43.229,6.5,94.172,17.506,110.095,58.387C1146.832,136.256,1131.982,205.912,1122.788,257.522Z" transform="translate(2913.054 1370.423) rotate(180)"/><path class="c" d="M1005.78,212.5c-32.856,118.819-102.428,234.72-219.387,305.653-62.022,37.613-134.02,63.577-203.148,89.23-78.356,29.074-160.228,51.642-243.83,62.836C235.306,684.163,66.692,696.732,12.3,591.906-41.686,487.856,94.736,395.768,175.409,343.288c51.725-33.619,107.077-64.474,156.495-101.226,26.8-19.925,47.439-42.948,70.116-66.316C464.694,111,554.042,59.737,645.113,32.374,733.368,5.846,842.561-5.9,935.732,2.869c40.2,3.774,68.937,16.48,81.094,52.622C1033.673,105.734,1019.361,163.415,1005.78,212.5Z" transform="translate(2850.895 1305.097) rotate(180)"/><path class="c" d="M879.114,190.785A473.966,473.966,0,0,1,673.388,453.742c-115.109,70.387-263.328,109.5-399.567,129.388C201.407,593.694,44.483,622.336,7.576,540.362S77.375,377.6,138.788,333.131c74.536-53.892,154.9-105.926,235.169-154.279C443.68,136.81,518.1,93.828,593.643,61.361A867.694,867.694,0,0,1,726.252,16.426C760.04,7.994,803-4.583,838.428,1.694,927.77,17.545,894.724,140.765,879.114,190.785Z" transform="translate(2778.733 1251.382) rotate(180)"/><path class="c" d="M743.67,165.5C672.056,363.338,445.163,460.632,226.7,494.555c-50.765,7.873-193.067,36.257-221.448-24.178-27.5-58.6,59.953-128.088,100.894-161.014,126.865-102.018,283.6-177.662,432.126-252.6C584.635,33.371,668.247-17.388,725.76,6.026,788.192,31.5,758.506,124.473,743.67,165.5Z" transform="translate(2710.566 1194.766) rotate(180)"/><path class="c" d="M592.124,130.982C529.846,276.676,348.7,360.238,182.16,387.791c-40.791,6.74-144.392,27.728-175.286-12.931-28.591-37.61,39.64-92.106,65.158-113.761,56.83-48.222,124.179-87.947,190.714-126.132,61.519-35.328,123.7-71.539,188.436-101.416,34.095-15.728,98.037-49.286,136.785-25C629.689,34.668,605.952,98.63,592.124,130.982Z" transform="translate(2632.374 1122.172) rotate(180)"/><path class="c" d="M415.058,90.807c-47.469,95.144-174.6,156.928-286.746,177.46-30.175,5.517-95.4,19.813-120.853-5.6-23.435-23.4,14.335-57.706,31.1-73.55C112.853,118.9,221.648,56.167,321.329,17.64c25.061-9.686,70.116-28.7,95.9-9.146C443.676,28.568,425.961,68.957,415.058,90.807Z" transform="translate(2536.142 1039.431) rotate(180)"/><path class="c" d="M221.042,45.122C194.3,92.367,124.386,128.012,66.478,139.365c-40.755,7.984-89.741,1.086-54.225-40.039C47.538,58.5,113.006,21.234,168.495,4.709,210.829-7.893,244.012,4.54,221.042,45.122Z" transform="translate(2427.879 953.779) rotate(180)"/><path class="c" d="M1293.425,596.19c1.716,93.346,57.84,190.346,30.123,285.452-22.761,78.112-137.349,84.635-206.1,120.021-54.626,28.115-85.627,77.92-115.169,125.706-26.542,42.9-50.384,87.093-78.346,129.29-18.1,27.279-49.183,80.846-88.436,81.813-37.579.932-72.038-40.811-93.867-65.487-28.469-32.164-53.694-66.454-81.331-99.132-46.575-55.121-102.448-95.92-166.445-134.533Q384.63,973.413,271.8,912.014c-55.382-30.229-111.143-60.232-164.378-93.447C74.038,797.723.34,758.623,0,720.2c-.162-18.334,19.491-38.638,32.743-53.293,22.422-24.807,47.98-47.487,73.618-69.683,47.75-41.336,97.526-80.8,146.755-120.738,63.915-51.831,124.957-102.813,181.135-161.665,58.085-60.913,113.575-123.832,170.2-185.89C642.8,86.889,681.11,39.676,736.424,13.878c69.282-32.247,126.149,1.755,196.215,2.15,60.272.347,55.827,123.8,63.488,158.122,7.687,34.744,24.626,67.087,31.189,101.911,8.186,43.475,8.294,87.953,10.307,131.893,2.444,53.746,3.408,104.913,68.4,125.409,36.986,11.646,76.986,14.093,115.279,21.069C1246.106,558.962,1292.885,566.7,1293.425,596.19Z" transform="translate(1331.224 1832.073) rotate(180)"/><path class="c" d="M1197.634,522.786c6.317,78.248,43.642,178.385,8.346,259.15-30.155,69.019-124.461,77.966-187.963,114.222-52.423,29.905-75.759,78.84-101.963,126.914-21.023,38.565-41.41,77.5-65.274,114.831-17.587,27.512-44.441,73.959-81.008,79.653-32.88,5.12-68.129-35.885-86.582-56.746-26.921-30.454-49.947-63.529-73.731-95.908-41.787-56.877-84.587-108.026-145.735-149.807C402.293,873.139,335.084,841.757,267.157,809.1c-53.139-25.55-106.009-51.842-156.5-81.34C73.047,705.8,18.974,677.691,1.767,638.527c-13.633-30.981,55.466-82.393,75.84-100.538,41.938-37.309,86.379-72.332,130.9-107.137,54.275-42.416,110.283-79.509,158.215-127.9,85.73-86.5,157.389-194.235,267.7-258.533C700.954,5.647,774.995-4.27,849,1.532c29.3,2.3,36.338,38.864,40.031,60.191,6.143,35.431,6.913,71.471,11.628,107.046,4.425,33.3,14.245,64.94,22.16,97.595,8.009,33.086,10.255,66.985,16.153,100.3,3.653,20.681,7.266,44.749,23.242,61.376,16.532,17.213,43.8,24.425,67.642,29.905C1074.622,468.133,1193.171,467.571,1197.634,522.786Z" transform="translate(1265.065 1742.065) rotate(180)"/><path class="c" d="M1059.241,427.788c10.626,71.82,25.5,161.272-17.785,227.442-35.382,54.1-110.839,65.775-164.737,101.028-44.828,29.316-61.762,75.941-84,119.269-18.258,35.54-36.613,71.234-58.742,105.054-16.783,25.648-38.413,60.424-71.736,69.371-28.491,7.645-60.679-26.6-76.473-43.65-26.9-29.053-48.822-61.605-70.6-93.729-35.624-52.563-68.406-108.71-119.108-151.464-49.267-41.489-107.793-65.978-167.415-93.514-45.667-21.1-91.05-43.006-134.079-68.164-33.04-19.308-73.979-42.181-91.2-74.3C-11.524,497.421,26.7,464.63,45.8,445.085c31.536-32.254,66.539-61.843,101.045-91.554,37.248-32.051,78.5-61.618,114.547-94.458,75.8-69.1,136.352-145.622,229.772-198.568C551.66,26.209,633.075-4.946,704.594.656c51.432,4.037,48.05,104.647,52.99,136.794,8.122,52.563,23.808,107.789,48.718,156.205,21.4,41.489,72.251,54.283,119.028,63.586,29.3,5.842,60.015,9,88.358,18.026C1046.506,385.737,1054.788,397.684,1059.241,427.788Z" transform="translate(1164.808 1614.313) rotate(180)"/><path class="c" d="M901.384,326.441c6.325,60.72,4.9,132.522-36.075,185.047-35.913,46.007-99.852,58.12-145.328,94.362-35.486,28.275-49.432,74.379-68.518,111.771C628.137,763.34,595.448,847.783,536.6,864.989c-54.733,16-111.989-86.18-131.809-116.648-31.374-48.223-57.614-101.108-95.666-145.641-32.769-38.34-76.674-59.534-123.274-82.313C126.436,491.3,36.23,456.8,4.463,400.109-19.217,357.864,57.792,295.06,84.076,265.79c27.5-30.576,48.213-66.818,76.585-96.316,44.784-46.547,117.354-84.023,177.271-112.622C396.193,29.034,471.836-1.755,537.916.078c43.431,1.2,51.693,60.48,60.96,89.439,13.276,41.166,30.927,78.056,68.845,106.056,38.593,28.5,84.084,41.933,131.9,53.688,24.545,5.99,52.547,10.663,74.506,22.764C898.393,285.191,898.949,303.1,901.384,326.441Z" transform="translate(1042.526 1479.303) rotate(180)"/><path class="c" d="M739.749,240.948c-.351,52.458-13.922,108.4-54.159,148.86-33.513,33.7-85.972,44.97-118.054,79.425-25.412,27.278-38.347,65.571-55.36,97.249-20.808,38.819-50.23,106.632-101.973,120.1-50.5,13.115-95.166-61.578-114.529-91.133-28.355-43.337-51.31-89.274-79.921-132.492-22.414-33.906-49.825-55.761-86.323-77.613-42.844-25.668-102.62-54.1-125.5-96.57-16.5-30.747,23.441-79.878,37.942-106.966,9.722-18.193,18.621-36.672,23.509-56.392,3.809-15.356,4.186-29.567,15.217-42.753C108.363,49.5,169.26,45.173,210.578,34.24,265.453,19.732,323.678,3.243,381.1.1c35.3-1.967,53.309,26.777,73.454,47,23.806,23.9,57.507,41.1,86.945,59.135,38.848,23.845,81.124,38.675,124.86,53.859,19.728,6.855,42.9,13.579,58.183,27.207C740.505,201.425,739.87,222.015,739.749,240.948Z" transform="translate(924.232 1358.81) rotate(180)"/><path class="c" d="M602.005,200.955c-6.975,44.057-28.71,86.166-65.42,117.311-28.142,23.911-65.515,37.375-88.1,66.1-21.051,26.781-35.71,57.233-53.093,85.867-18.4,30.273-45.727,80.87-88.153,89.107-45.727,8.872-80.95-42.168-100.455-70.456-24.64-35.749-43.361-74.209-65.392-111.189-16.051-26.914-37.188-52.082-62.806-74.783C52.322,279.709,16.708,257.476,3.42,225.573c-11.746-28.264,10.225-62.458,14.112-91.116,4.15-30.618-3.122-62.78,19.882-89.07C84.851-8.834,203.917,1.221,271.986.061c67.163-1.2,121.161,31.981,175.511,63.545,35.9,20.839,73.285,38.485,110.093,57.9C595.11,141.319,608.14,162.182,602.005,200.955Z" transform="translate(832.01 1287.676) rotate(180)"/><path class="c" d="M503.578,194.24c-20.626,63.826-85.044,97.75-131.093,145.984C334.805,379.711,306.553,461.486,243.095,472.3,171.049,484.582,127.92,376.23,102.871,334.421c-27.793-46.368-77.293-84.085-97.877-133.17-10.826-25.762-1.528-49.8,4.232-75.553C15.542,97.41,20.288,68.508,42.09,45.748,85.006.959,168.809,1.271,229.177.039c62.483-1.28,117.759,29.412,167.544,60.045C449.521,92.524,524.7,128.78,503.578,194.24Z" transform="translate(775.879 1255.737) rotate(180)"/><path class="c" d="M420.917,182.506c-23.24,45.474-72.079,82.443-111.708,117.343-33.08,29.1-68.66,87.665-119.088,91.84-59.276,4.921-95.2-57.617-118.521-95.974C48.644,258.039,15.568,218.25,2.857,176.892-10.4,133.809,24.9,75.779,58.562,45.293,96.107,11.3,157.532-1.258,210.239.1c55.186,1.379,105.822,29.47,147.617,58.618C402.539,89.868,447.945,129.717,420.917,182.506Z" transform="translate(727.762 1226.703) rotate(180)"/><path class="c" d="M338.736,164.938c-22.2,37.822-60.681,69.818-96.163,98.357-27.382,22.033-67.786,59.5-107.29,60.416-43.459,1.016-80.29-30.434-97.566-62.668C20.688,229.251,2.743,189.389.2,154.51-5.345,78.556,107.372-6.532,192.011.4,272.255,6.969,383,89.572,338.736,164.938Z" transform="translate(677.637 1200.573) rotate(180)"/><path class="c" d="M264.989,142.976c-30.626,49.28-105.016,119.535-173.885,121.2-79.051,1.908-98.9-76.272-88.592-132.93C12.979,73.425,104.12-10.272,176.792,1.037,247.722,12.073,301.285,84.533,264.989,142.976Z" transform="translate(633.533 1174.441) rotate(180)"/><path class="c" d="M199.609,116.1c-25.929,41.261-81.261,92.8-138.972,94.362C-8.13,212.31-6.829,146.3,8.763,105.223,24.978,62.569,96.391-10.287,156.6,1.215,215.149,12.444,224.457,76.557,199.609,116.1Z" transform="translate(599.453 1139.6) rotate(180)"/><path class="c" d="M138.263,83.106C121.148,112.547,78.318,149.759,37.59,150.95c-49.775,1.431-40.1-50.922-27.238-76.189C25.639,44.694,76.877-7.549,119.875.916,162.209,9.25,152.386,58.848,138.263,83.106Z" transform="translate(565.369 1101.854) rotate(180)"/><path class="c" d="M595.572,408.65c110.171-59.069,234.714-107.828,352.161-157.389,171.632-72.409,345.791-142.883,526.132-196.822,96.688-28.918,221.978-70.6,325.723-47.952,37.932,8.275,72.524,33.323,106.532,49.6,46.9,22.438,94.485,43.765,141.99,65.139,95.295,42.845,190.888,85.26,284.547,130.853,45.1,21.96,88.859,49.618,135.809,68.353,27.439,10.956,60.272,5.83,89.589,5.138,67.913-1.613,135.783-4.672,203.653-7.276,83.017-3.178,166.223-6.559,249.334-5.3,37.49.581,129.291-5.3,149.927,23.228,11.1,15.365-15.064,43.071-27.194,55.891-22.272,23.561-47.87,44.791-73.131,65.808-58.418,48.6-120.461,94.889-172.389,149.181C2861.572,635,2826.616,669.1,2844.034,707.2c17.581,38.484,48.032,71.807,66.613,110.158,21.394,44.132,30.274,90.062,40.366,136.861,7.478,34.589,24.9,65.235,41.272,97.12,18.094,35.246,36.835,70.79,49.4,107.96,8.3,24.553,21.7,68.723-7.344,84.268-41.272,22.1-118.664,4.21-165.709-2.305-65.018-8.985-129.562-20.43-194.4-30.287-47.072-7.169-94.308-15.03-142.167-15.867-77.146-1.35-154.552,3.322-231.5,7.671-142.477,8.053-283.932,18.973-426.888,18.973-125.245,0-414.676-128.042-482.426-150.59-135.227-45-274.053-87.672-402.019-147.555-34.618-16.213-87.9-37.814-106.113-71.185-11.237-20.562-6.073-32.451-32.577-45.7-36.16-18.077-82.49-25.174-122.517-33.263C663.56,760.438,598.6,749.41,533.836,737.618c-130.977-23.787-261.068-50.693-391.5-76.583C102.9,653.209,55.2,651.477,17.6,637.688c-24.233-8.856-21.719-20-2.961-33.453,32.9-23.609,79.013-36.716,117.885-50.18,56.938-19.726,114.822-37.325,172.726-54.673s116.107-34.159,174.039-51.536C517.545,436.388,561.182,427.085,595.572,408.65Z" transform="translate(3364.136 3109.589) rotate(180)"/><path class="c" d="M433.647,334.54c116.538-59.19,245.9-106.343,370.605-152.348,159.6-58.915,322.818-114.133,490.989-150.96,98.731-21.609,215.235-45.467,316.117-20.687,35.991,8.842,62.88,28.715,93.733,46.256,35.167,20.018,71.685,38.359,108.206,56.414Q1926.06,168.961,2041.205,220.9c40.659,18.414,85.407,43.074,131.348,49.463,36.52,5.081,78-2.273,114.678-4.415,66.06-3.853,132.105-7.825,198.192-11.2,76.259-3.889,152.732-7.478,229.155-6.857,42.593.347,115.712-5.384,145.835,18.941,26.28,21.226-69.4,97.991-86.227,112.577-52.547,45.538-107.813,88.9-156.723,137.6-28.9,28.715-64.1,63.641-76.285,101.7-10.373,32.437,9.643,69.392,21.466,99.381,14.784,37.557,26.712,76.491,43.89,113.259,15.3,32.76,39.644,61.942,61.027,91.723,23.521,32.759,47.341,66.053,64.8,101.8,10.7,21.991,28.4,58.819,7.141,79.781-24.563,24.168-100.279,8.375-131.4,4.936-63.139-7.083-125.788-17.612-188.494-27.041-104.148-15.65-203.441-29.338-309.5-26.06-138.111,4.284-276.086,14.358-414.171,19.934-50.992,2.082-102.8,6.27-153.829,4.008-29.257-1.307-51.525-9.2-68.548-27.017-23.236-24.312-76.758-37.772-113.982-51.723-58.038-21.74-116.809-41.955-175.425-62.444C1055.5,894.25,924.369,850.889,802.353,792.7c-38.6-18.4-82.8-38.922-111.358-69.324-15.933-16.955-11.917-33.287-21.64-51.305-12.877-23.7-55.212-34.406-80.519-42.152C539.994,614.942,489.151,604.9,438.7,595.5c-114.156-21.274-228.585-35.261-344.594-45.562-27.186-2.392-134.243-10.685-78.017-50.648,62.143-44.173,151.846-65.8,224.979-90.7C306.952,386.217,372.89,365.4,433.647,334.54Z" transform="translate(3111.552 3022.485) rotate(180)"/><path class="c" d="M305.976,251.123C415.517,199.05,536.865,160.2,654.841,123.038,798,77.942,944.743,37.743,1094.906,15.224c94.314-14.131,198.3-24.991,291.989-1.5,63.977,16.031,113.475,59.375,169.659,89.19s114.66,57.808,174.873,81.138c37.37,14.478,77.572,29.065,119.154,27.147,101.1-4.635,202.089-15.679,303.3-21.05,66.962-3.584,134.049-6.533,201.207-5.65,40.5.526,96.137-1.625,131.991,17.2,39.632,20.822-171.393,198.6-191.337,218.614-50.005,50.173-110.556,116.761-100.888,188.116,9.248,68.212,49.319,119.139,94.659,172.585,25.726,30.4,108.228,111.624,77.654,151.165-17.467,22.6-75.04,14.777-102.392,13.237-53.9-3.034-107.51-9.557-161.13-15.22-78.189-8.207-158.516-20.882-237.036-24.6-54.676-2.58-109.676.871-164.446.944-78.534.1-157.066-.435-235.6-1.051-65.942-.525-132.437,0-198.148-5.591-40.851-3.441-71.858-11.169-101.159-33.006-25.5-18.994-63.955-30.116-96.462-42.194-53.674-19.938-108.052-38.418-162.253-57.2C795.07,728.174,680.282,689.673,571.663,640.526,522.079,618.1,438.711,586.71,427.081,532.342c-4.2-19.6-7.286-28.073-28.948-39.218-30.75-15.824-67.58-22.949-102.079-29.149-80.429-14.455-163.2-12.293-243.482-26.58-32.7-5.89-75.383-18.6-38.062-47.7,43.559-34.034,106.969-52.743,159.151-73.766,26.051-10.489,52.888-20.308,77.626-33.115C270.284,272.95,286.545,260.294,305.976,251.123Z" transform="translate(2822.828 2928.123) rotate(180)"/><path class="c" d="M212.716,173.022c101.2-42.294,211.111-73.045,319.046-100.767C651.652,41.5,774.426,16.034,898.827,5.2c85.9-7.508,177.43-9.727,260.793,13.256,52.728,14.538,88.468,45.108,133.836,70.745,68.474,38.749,142.557,69.453,224.818,61.981q138.335-12.537,277.584-18.811c56-2.526,112.208-4.419,168.27-2.658,35.446,1.1,81.112,2.957,111.949,17.148,41.26,19-113.721,163.609-133.04,184.684C1895.121,383.8,1860,438.654,1839.482,503.412c-16.737,52.843,17.452,94.384,52.727,133.913,21.927,24.549,92.781,86.289,70.6,118.17-12.168,17.579-52.265,16.669-73.8,17.566-41.043,1.7-82.263-.071-123.3-.851-60.6-1.2-125.117,7.029-185.208.407-133.175-14.662-266.01-27.35-400.011-37.4-73.867-5.533-148.181-10.561-221.386-21.232-26.282-3.833-53.427-7.891-78.328-16.561-16.021-5.569-24.754-15.051-38.273-22.836-64.458-37.049-148.6-56.113-221.2-79.859C524.8,563.168,427.77,532.094,333.829,494.805,284.417,475.191,215.4,452.654,181.4,412.623c-10.275-12.094-5.894-21.776-12.356-33.4-7.436-13.411-30.025-17.411-44.612-21.147-33.108-8.49-171.69-21.327-107.827-71.134C47.083,263.223,85.907,248,120.26,229.359c12.43-6.753,24.563-13.543,34.933-22.656C172.524,191.427,189.612,182.709,212.716,173.022Z" transform="translate(2522.095 2833.762) rotate(180)"/><path class="c" d="M203.236,107.137C403.022,38.7,637.163-7.913,854.98,1.118c72.433,3.015,150.364,13.076,213.158,47.5,37.024,20.336,66.613,43.293,111.083,50.639,32.106,5.3,66.677-.717,98.972-2.895q70.166-4.736,140.426-8.266c58.075-2.787,116.34-4.936,174.523-3.792,41.575.826,98.986-.107,135.1,19.63,43.118,23.543-66.635,133.982-82.079,153.661-37.431,47.7-63.67,93.908-73.151,151.389-2.791,16.747-12.192,33.914-10.973,50.794,1.273,17.238,13.29,32.587,24.383,46.14,14.509,17.765,64.849,59.9,50.434,81.562-7.965,11.962-37.864,13.471-53.361,16.007-29.071,4.791-58.562,7.357-87.813,11.161-49.622,6.483-98.891,27.6-148.688,27-133.908-1.58-269.755-38.281-400.983-58.438C868,571.192,789.454,560.278,712.387,544c-24.385-5.157-49.5-10.492-72.678-19.235-16.175-6.1-26.564-16.975-41.549-23.808-57.451-26.234-123.519-42.157-185.21-59.811C332.862,418.179,252.5,395.9,172.969,371.453c-49.853-15.324-113.954-28.807-156.912-57.23-31.374-20.76-9.93-26.964,6.616-46.3,8.452-9.857,6.5-19.571,10.173-30.732,5.251-15.94,20.077-27.411,33.974-37.729,19.168-14.247,44.708-25.986,60.378-43.449,5.527-6.149,5.269-13.781,9.74-19.141C149.943,121.271,184.451,113.567,203.236,107.137Z" transform="translate(2291.552 2749.561) rotate(180)"/><path class="c" d="M287.335,58.924C449.488,15.9,629.9-8.592,801.3,2.776c59.634,3.96,119.634,13.163,175.184,33.375,25.273,9.166,44.245,19.386,71.94,19.937,64.26,1.269,128.712-3.171,192.967-4.236,45.977-.767,92.183-1.041,138.052,2.225,30.674,2.178,72.143,4.791,97.268,21.409,36.51,24.209-29.4,106.5-42.812,129.241-22.232,37.707-44.287,79.627-35.47,123.251,2.7,13.343,7.492,25.131,8.114,38.736.6,11.692-1.069,22.486,3.625,33.663,5.8,13.858,31.6,35.361,22.731,48.119-6.045,8.71-23.976,9.118-35.9,11.9a394.378,394.378,0,0,0-56.471,17.734c-19.2,7.707-35.55,19.613-55.442,25.986-32.292,10.316-68.438,11.284-102.38,11.236-135.428-.192-272.574-23.808-404.57-48.488-68.734-12.852-137.85-26.555-204.651-46.049-20.283-5.923-43.273-11.871-61.108-22.808-11.129-6.809-18.675-15.342-31.318-20.469C373.053,333.817,248.187,317.578,133.529,286c-29.844-8.221-195.239-49.758-108.761-88.829,52.527-23.742,108.046-34.537,155.978-67.014,14.605-9.872,24.341-18.046,30.047-33.112,3.759-10.029-5.287-4.936,7.342-15.425C233.461,69.024,268.45,63.939,287.335,58.924Z" transform="translate(2163.237 2676.975) rotate(180)"/><path class="c" d="M297.553,27.746C487.392-7.368,688.433-9.039,881.27,22.084c48.612,7.839,99.2,5.965,148.413,7.958,47.812,1.909,132.82-2.064,167.548,30.425,25.181,23.553-2.143,73.6-11.594,99.951-12.041,33.564-22.565,68.231-2.793,100.834,11.58,19.09,27.446,37.263,39.867,56.174,5.938,9.033,18.17,22.873,13.072,31.428-8.434,14.115-47.894,20.057-67.04,26.712-61.2,21.284-126,26.706-191.428,26.561-120.847-.274-242.317-14.879-360.86-34.685-54.532-9.115-109.836-18.84-162.435-34.685-29.764-8.96-51.725-26.25-80.14-36.5-91.516-33.027-189.84-50.674-282.929-80.873C64.007,206.642-36.636,177.528,14.064,143.2c49.087-33.23,120.692-29.28,171.724-60.537,5.776-3.58,12.923-7.863,16.271-13.646,1.979-3.459-1.506-10.046,0-12.014C217.73,35.6,273.464,32.2,297.553,27.746Z" transform="translate(2004.856 2620.358) rotate(180)"/><path class="c" d="M238.1,16.114C335.5,4.308,435.031,1.379,534.065.636,588.2.228,647.672-2.819,700.638,9.3c32.537,7.462,63.955,13.987,97.5,18.691,36.087,5.062,94.194,8.745,116.169,36.181,16.418,20.5,5.165,62.646,4.569,87.575-.637,27.34,5.708,47.616,27.549,67.18,13.733,12.321,76.732,57.044,69.452,69.94-6.927,12.284-50.825,14.167-69.8,17.36-59.989,10.126-120.779,13.646-181.8,13.1-94.5-.839-189.362-9.358-282.392-23.993-38.461-6.083-78.209-12.38-114.948-24.534-24.742-8.194-45.376-22.721-69.953-31.19-70.388-24.293-144.815-40.793-215.448-65.525-22.669-7.954-96.528-29.127-78.821-61.758C17.478,85.08,67.692,76.8,92.365,58.531,134.337,27.388,184.581,22.591,238.1,16.114Z" transform="translate(1822.412 2585.517) rotate(180)"/><path class="c" d="M149.093,11.444C226.884,3.814,305.3.006,383.8.045c50.592-.107,103.965-.717,153.612,9.333,24.938,5.043,46.609,16.84,70.21,25.25,24.3,8.651,57.842,18.306,68.347,38.143,9.87,18.642,6.183,45.838,14.852,68.315,7.709,19.944,23.844,32.263,41.222,45.742,11.071,8.616,67.928,45.911,61.349,54.149-7.049,8.819-41.194,8.1-58.963,9.32-48.906,3.416-98.069,4.505-147.172,3.262-67-1.816-134.508-6.883-200.343-18.354-46.713-8.13-81.93-27.484-125.474-41.68-56.411-18.437-114.848-33.017-170.719-53.187-27.835-10.056-69.043-22.985-83.3-48.927-5.481-9.941-10.8-35.229-4.7-45.169,7.332-11.949,34.62-17.016,47.5-20.087C82.488,18.495,116.258,14.767,149.093,11.444Z" transform="translate(1672.048 2565.192) rotate(180)"/><path class="c" d="M123.232,10.2C219.81.595,328.93-7.557,425.8,11.772c39.149,7.8,78.135,30.922,94.1,62.424,8.272,16.291,10.05,35.68,22.4,51.468,9.148,11.669,20.786,22.211,32.264,32.031,6.466,5.547,47.892,35.933,39.9,41.36-8.432,5.727-29.125,3.854-43.257,4q-50.871.426-101.588-3.073c-38.8-2.613-78.512-6-116.137-15.175-30.352-7.443-58.008-23.111-87.564-32.416-77.7-24.637-159.578-43.945-232.525-80.431C17.873,64.2-12.816,52.591,5.829,35.063,29.026,13.225,93.393,13.152,123.232,10.2Z" transform="translate(1573.81 2544.867) rotate(180)"/><path class="c" d="M87.128,5.735c68.767-6.724,145.059-9.883,214.1,3.97,34.965,7.01,66.16,21.616,81.383,49.886,10.9,20.15,13.834,42.636,28.726,62,5.271,6.832,24.64,26,15.093,30.189-20.431,9-66.034-1.359-94.378-6.081-42.659-7.154-78.278-27.184-118.84-39.059C150.995,88.432,72.158,78.7,15.457,47.668-39.19,17.658,67.064,7.7,87.128,5.735Z" transform="translate(1453.518 2523.093) rotate(180)"/><path class="d" d="M49.482,3.307C107.823-2.743,211.6-5.73,244.893,42.939c6.177,9.037,23.23,58.927,6.75,63.381-13.583,3.655-34.9-2.381-50.248-8.025-28.547-10.442-55.334-21.825-84.833-30.446-25.117-7.334-50.835-14.1-75.623-22.624C30.42,41.647,10.646,37.309,4.046,29.168-13.719,7.258,31.717,5.14,49.482,3.307Z" transform="translate(1337.238 2504.219) rotate(180)"/></g></g></svg>