<svg xmlns="http://www.w3.org/2000/svg" xmlns:xlink="http://www.w3.org/1999/xlink" width="1335.437" height="935.53" viewBox="0 0 1335.437 935.53"><defs><style>.a{opacity:0.83;}.b{fill:url(#a);}.c{filter:url(#f);}.d{filter:url(#b);}</style><linearGradient id="a" x1="0.5" x2="0.683" y2="0.349" gradientUnits="objectBoundingBox"><stop offset="0" stop-color="#f6d869"/><stop offset="1" stop-color="#7b6c35"/></linearGradient><filter id="b" x="0" y="114.613" width="947.408" height="820.917" filterUnits="userSpaceOnUse"><feOffset dy="24" input="SourceAlpha"/><feGaussianBlur stdDeviation="35.5" result="c"/><feFlood/><feComposite operator="in" in2="c"/><feComposite in="SourceGraphic"/></filter><filter id="f" x="422.49" y="0" width="912.946" height="794.753" filterUnits="userSpaceOnUse"><feOffset dy="24" input="SourceAlpha"/><feGaussianBlur stdDeviation="37.5" result="g"/><feFlood/><feComposite operator="in" in2="g"/><feComposite in="SourceGraphic"/></filter></defs><g class="a" transform="translate(-99.88 -166.26)"><g class="d" transform="matrix(1, 0, 0, 1, 99.88, 166.26)"><path class="b" d="M841.223,771.3s-25.278,1.548-60.874,6.964c-15.476,2.579-33.016,5.675-51.072,9.8-12.123,2.579-24.5,5.675-36.885,9.286-5.159,1.29-10.06,3.1-14.961,4.643-.516.258-.774.258-1.29.516-5.675,1.805-9.8,3.353-13.413,4.643A60.278,60.278,0,0,0,655.506,810a14.786,14.786,0,0,1-1.806,1.032c-4.643,1.806-9.544,3.869-14.187,5.933C518.8,873.965,401.176,851.524,321.473,749.9c-68.1-86.926-65-212.8,7.48-301.533,77.64-94.922,193.971-114.268,312.108-57.263,38.433,18.572,82.541,25.536,125.875,30.7H934.082s-168.951-7.738-231.373-51.588h0c-144.963-100.6-286.83-97.244-396.971,7.222C188.633,488.6,173.157,662.2,269.369,790.134c104.208,139.03,232.663,153.733,440.047,32.5,5.159-2.837,10.318-5.933,15.734-9.028,70.934-35.854,215.638-42.3,215.638-42.3H841.223Z" transform="translate(-99.88 -99.75)"/></g><path class="b" d="M444.211,340.963c-49.783-4.643-96.47,12.123-136.451,50.04C233.731,461.421,223.93,571.3,284.8,652.555c39.723,53.394,85.378,77.64,144.189,71.965-43.592-4.643-79.446-28.632-111.688-71.965C256.43,571.562,266.49,461.421,340.519,391,371.214,361.6,406.552,344.574,444.211,340.963Z" transform="translate(60.916 134.956)"/><g transform="translate(634.871 254.76)"><g class="c" transform="matrix(1, 0, 0, 1, -534.99, -88.5)"><path class="b" d="M967.287,330.222c-103.1-97.911-236.39-100.961-372.123-6.71C536.6,364.384,378.3,371.7,378.3,371.7h156.78c40.568-4.88,82.05-11.286,118.043-28.672,110.722-53.683,219.614-35.382,292.513,53.683,68.019,83.27,71.069,201.007,7.015,282.753-74.73,95.471-184.841,116.212-298,62.834a119.784,119.784,0,0,0-13.116-5.49c-.61-.305-.915-.61-1.525-.915-1.525-.915-3.66-1.525-6.71-2.745-3.355-1.22-7.32-2.745-12.506-4.575a2.306,2.306,0,0,0-1.22-.3c-4.88-1.525-9.456-3.05-14.336-4.27-11.591-3.355-23.182-6.405-34.467-8.846a35.463,35.463,0,0,0-5.49-1.22c-15.251-3.355-29.587-5.8-42.7-8.235-33.552-4.88-57.038-6.406-57.038-6.406H372.5s135.428,6.1,202.227,39.957c2.745,1.525,5.49,3.05,7.931,4.575a72.8,72.8,0,0,0,6.71,3.66c3.355,2.135,6.711,3.965,10.066,5.8,138.479,78.695,238.83,91.506,320.27,41.787a188.452,188.452,0,0,0,16.166-10.981c23.486-16.776,45.143-39.347,65.884-67.1a245.5,245.5,0,0,0,22.266-34.467C1088.074,567.527,1066.723,424.778,967.287,330.222Z" transform="translate(162.49 -166.26)"/></g><path class="b" d="M519.941,649.334c54.9,5.49,97.606-17.386,135.124-67.409,57.039-75.95,47.888-179.046-21.656-245.235C595.891,301,551.968,285.142,505.3,289.717c35.382,3.66,68.324,19.216,97.606,46.973C672.45,402.574,681.6,505.67,624.562,581.925,594.365,622.493,560.813,645.064,519.941,649.334Z" transform="translate(-100.235 -184.668)"/></g></g></svg>