<svg xmlns="http://www.w3.org/2000/svg" width="133.226" height="133.226" viewBox="0 0 133.226 133.226">
  <g id="Icon1" transform="translate(-156.18 -68.001)">
    <g id="Group_416" data-name="Group 416" transform="translate(216.946 128.767)">
      <g id="Group_415" data-name="Group 415">
        <path id="Path_152" data-name="Path 152" d="M274.713,240a34.713,34.713,0,1,0,34.713,34.713A34.713,34.713,0,0,0,274.713,240Zm0,64.085a29.372,29.372,0,1,1,29.372-29.372A29.373,29.373,0,0,1,274.713,304.085Z" transform="translate(-240 -240)" fill="#f6d869"/>
      </g>
    </g>
    <g id="Group_418" data-name="Group 418" transform="translate(238.336 143.478)">
      <g id="Group_417" data-name="Group 417">
        <path id="Path_153" data-name="Path 153" d="M322.645,283.056a6.661,6.661,0,0,0-6.661-6.661h-2.22v-4.441h-4.441v4.441h-2.2l.036-4.423-4.441-.036-.036,4.459H296v4.441h4.441v22.2H296v4.441h6.679l.036,4.459,4.441-.036-.036-4.423h2.2v4.441h4.441v-4.441h2.22a6.661,6.661,0,0,0,6.661-6.661v-4.441a6.619,6.619,0,0,0-1.732-4.441,6.619,6.619,0,0,0,1.732-4.441ZM318.2,300.819a2.22,2.22,0,0,1-2.22,2.22h-11.1v-8.882h11.1a2.221,2.221,0,0,1,2.22,2.22Zm0-13.323a2.221,2.221,0,0,1-2.22,2.221h-11.1v-8.882h11.1a2.221,2.221,0,0,1,2.22,2.22Z" transform="translate(-296 -271.936)" fill="#f6d869"/>
      </g>
    </g>
    <g id="Group_420" data-name="Group 420" transform="translate(213.911 125.732)">
      <g id="Group_419" data-name="Group 419">
        <path id="Path_154" data-name="Path 154" d="M245.747,208a37.747,37.747,0,1,0,37.747,37.747A37.747,37.747,0,0,0,245.747,208Zm0,71.054a33.307,33.307,0,1,1,33.307-33.307A33.307,33.307,0,0,1,245.747,279.054Z" transform="translate(-208 -208)" fill="#f6d869"/>
      </g>
    </g>
    <g id="Group_422" data-name="Group 422" transform="translate(159.997 71.818)">
      <g id="Group_421" data-name="Group 421">
        <path id="Path_155" data-name="Path 155" d="M65.93,32A33.93,33.93,0,1,0,99.86,65.93,33.93,33.93,0,0,0,65.93,32Zm0,62.64A28.71,28.71,0,1,1,94.64,65.93,28.744,28.744,0,0,1,65.93,94.64Z" transform="translate(-32 -32)" fill="#f6d869"/>
      </g>
    </g>
    <g id="Group_424" data-name="Group 424" transform="translate(156.18 68.001)">
      <g id="Group_423" data-name="Group 423">
        <path id="Path_156" data-name="Path 156" d="M37.747,0A37.747,37.747,0,1,0,75.495,37.747,37.747,37.747,0,0,0,37.747,0Zm0,71.054A33.307,33.307,0,1,1,71.054,37.747,33.344,33.344,0,0,1,37.747,71.054Z" fill="#f6d869"/>
      </g>
    </g>
    <g id="Group_426" data-name="Group 426" transform="translate(182.825 85.764)">
      <g id="Group_425" data-name="Group 425">
        <path id="Path_157" data-name="Path 157" d="M107.1,81.763c-3.61,0-6.661-2.034-6.661-4.441s3.051-4.441,6.661-4.441,6.661,2.034,6.661,4.441a2.22,2.22,0,1,0,4.441,0c0-4.29-3.821-7.876-8.882-8.7V64h-4.441v4.621c-5.06.826-8.882,4.412-8.882,8.7,0,4.9,4.98,8.882,11.1,8.882,3.61,0,6.661,2.034,6.661,4.441s-3.051,4.441-6.661,4.441-6.661-2.034-6.661-4.441a2.22,2.22,0,1,0-4.441,0c0,4.29,3.821,7.876,8.882,8.7v4.621h4.441V99.347c5.06-.826,8.882-4.412,8.882-8.7C118.2,85.747,113.224,81.763,107.1,81.763Z" transform="translate(-96 -64)" fill="#f6d869"/>
      </g>
    </g>
    <g id="Group_428" data-name="Group 428" transform="translate(232.976 81.435)">
      <g id="Group_427" data-name="Group 427">
        <path id="Path_158" data-name="Path 158" d="M295.371,57.171H285.188l5.629-5.631-3.14-3.14L276.688,59.391l10.989,10.991,3.14-3.14-5.629-5.631h10.183A20.006,20.006,0,0,1,315.355,81.6V92.7H319.8V81.6A24.454,24.454,0,0,0,295.371,57.171Z" transform="translate(-276.688 -48.4)" fill="#f6d869"/>
      </g>
    </g>
    <g id="Group_430" data-name="Group 430" transform="translate(169.502 143.496)">
      <g id="Group_429" data-name="Group 429">
        <path id="Path_159" data-name="Path 159" d="M77.9,294.315l-3.14,3.14,5.629,5.631H72.425A20.006,20.006,0,0,1,52.441,283.1V272H48v11.1a24.454,24.454,0,0,0,24.425,24.425h7.962l-5.629,5.631,3.14,3.14,10.989-10.991Z" transform="translate(-48 -272)" fill="#f6d869"/>
      </g>
    </g>
  </g>
</svg>
