<svg xmlns="http://www.w3.org/2000/svg" xmlns:xlink="http://www.w3.org/1999/xlink" width="727.705" height="545.487" viewBox="0 0 727.705 545.487">
  <defs>
    <linearGradient id="linear-gradient" x1="0.5" x2="0.683" y2="0.349" gradientUnits="objectBoundingBox">
      <stop offset="0" stop-color="#f6d869"/>
      <stop offset="1" stop-color="#7b6c35"/>
    </linearGradient>
    <filter id="Path_140" x="0" y="55.49" width="547.633" height="489.997" filterUnits="userSpaceOnUse">
      <feOffset dy="24" input="SourceAlpha"/>
      <feGaussianBlur stdDeviation="35.5" result="blur"/>
      <feFlood/>
      <feComposite operator="in" in2="blur"/>
      <feComposite in="SourceGraphic"/>
    </filter>
    <filter id="Path_143" x="189.242" y="0" width="538.463" height="484.608" filterUnits="userSpaceOnUse">
      <feOffset dy="24" input="SourceAlpha"/>
      <feGaussianBlur stdDeviation="37.5" result="blur-2"/>
      <feFlood/>
      <feComposite operator="in" in2="blur-2"/>
      <feComposite in="SourceGraphic"/>
    </filter>
  </defs>
  <g id="MobileImageHeroSection" transform="translate(146.5 -9.347)">
    <g id="TOP" transform="translate(-246.38 -156.913)" opacity="0.83">
      <g transform="matrix(1, 0, 0, 1, 99.88, 166.26)" filter="url(#Path_140)">
        <path id="Path_140-2" data-name="Path 140" d="M495.647,513.045s-11.518.705-27.737,3.173c-7.052,1.175-15.044,2.586-23.271,4.466-5.524,1.175-11.165,2.586-16.807,4.231-2.351.588-4.584,1.41-6.817,2.115-.235.118-.353.118-.588.235-2.586.823-4.466,1.528-6.112,2.116a27.476,27.476,0,0,0-3.291,1.293,6.746,6.746,0,0,1-.823.47c-2.116.823-4.349,1.763-6.464,2.7-55,25.974-108.6,15.749-144.916-30.558-31.028-39.608-29.618-96.963,3.408-137.394,35.377-43.251,88.383-52.066,142.212-26.092,17.512,8.462,37.61,11.636,57.355,13.986h76.16s-76.983-3.526-105.425-23.506h0c-66.052-45.837-130.694-44.309-180.88,3.291-53.359,50.656-60.411,129.754-16.572,188.049,47.482,63.349,106.013,70.048,200.508,14.809,2.351-1.293,4.7-2.7,7.169-4.114,32.321-16.337,98.256-19.275,98.256-19.275Z" transform="translate(-99.88 -158.88)" fill="url(#linear-gradient)"/>
      </g>
      <path id="Path_141" data-name="Path 141" d="M335.743,340.551c-22.683-2.116-43.956,5.524-62.174,22.8-33.731,32.086-38.2,82.154-10.46,119.176,18.1,24.329,38.9,35.377,65.7,32.791-19.863-2.116-36.2-13.046-50.891-32.791-27.737-36.9-23.154-87.09,10.578-119.176C302.481,349.954,318.583,342.2,335.743,340.551Z" transform="translate(6.761 14.98)" fill="url(#linear-gradient)"/>
      <g id="Group_405" data-name="Group 405" transform="translate(401.622 254.76)">
        <g transform="matrix(1, 0, 0, 1, -301.74, -88.5)" filter="url(#Path_143)">
          <path id="Path_143-2" data-name="Path 143" d="M643.515,289.144c-46.976-44.613-107.711-46-169.558-3.058-26.684,18.624-98.816,21.959-98.816,21.959h71.437c18.485-2.224,37.386-5.142,53.786-13.064,50.45-24.461,100.067-16.122,133.284,24.461,30.993,37.942,32.383,91.589,3.2,128.836-34.051,43.5-84.223,52.952-135.785,28.63a54.582,54.582,0,0,0-5.976-2.5c-.278-.139-.417-.278-.695-.417a26.379,26.379,0,0,0-3.058-1.251c-1.529-.556-3.336-1.251-5.7-2.085a1.051,1.051,0,0,0-.556-.139c-2.224-.695-4.308-1.39-6.532-1.946-5.281-1.529-10.563-2.919-15.705-4.03a16.16,16.16,0,0,0-2.5-.556c-6.949-1.529-13.481-2.641-19.458-3.752-15.288-2.224-25.99-2.919-25.99-2.919H372.5s61.708,2.78,92.145,18.207c1.251.695,2.5,1.39,3.614,2.085a33.192,33.192,0,0,0,3.058,1.668c1.529.973,3.058,1.807,4.586,2.641,63.1,35.857,108.823,41.695,145.931,19.04a85.862,85.862,0,0,0,7.366-5c10.7-7.644,20.569-17.929,30.02-30.576a111.87,111.87,0,0,0,10.146-15.7C698.552,397.272,688.823,332.229,643.515,289.144Z" transform="translate(-70.76 -166.26)" fill="url(#linear-gradient)"/>
        </g>
        <path id="Path_144" data-name="Path 144" d="M511.971,453.158c25.017,2.5,44.474-7.922,61.569-30.715,25.99-34.606,21.82-81.582-9.868-111.741-17.095-16.261-37.108-23.488-58.372-21.4,16.122,1.668,31.132,8.756,44.474,21.4,31.688,30.02,35.857,77,9.868,111.741C545.883,440.928,530.595,451.212,511.971,453.158Z" transform="translate(-320.732 -241.433)" fill="url(#linear-gradient)"/>
      </g>
    </g>
    <text id="Bscience" transform="translate(214 269)" fill="#f6d869" font-size="37" font-family="Poppins-Light, Poppins" font-weight="300" letter-spacing="0.335em" opacity="0.42"><tspan x="-125.504" y="0">Bscience</tspan></text>
  </g>
</svg>
