<svg xmlns="http://www.w3.org/2000/svg" xmlns:xlink="http://www.w3.org/1999/xlink" width="1053.536" height="687" viewBox="0 0 1053.536 687">
  <defs>
    <clipPath id="clip-path">
      <circle id="Ellipse_60" data-name="Ellipse 60" cx="246" cy="246" r="246" transform="translate(0.067 0.2)" fill="#10223c" stroke="#707070" stroke-width="1"/>
    </clipPath>
  </defs>
  <g id="Group_389" data-name="Group 389" transform="translate(-738 -2672)">
    <g id="Mask_Group_15" data-name="Mask Group 15" transform="translate(1065.993 2817.8)" clip-path="url(#clip-path)">
      <g id="Group_386" data-name="Group 386" transform="translate(-24.604 -26.537)">
        <path id="Path_127" data-name="Path 127" d="M15170,4380.526v271.814l240.52,81.809,44.859-245.425s-124.027-120.072-127.988-120.072S15170,4380.526,15170,4380.526Z" transform="translate(-14899.196 -4368.652)" fill="#1f406e"/>
        <path id="Path_128" data-name="Path 128" d="M15223.018,4480.795l242.594,84.6-96.426,145.143-143.988,36.541-90.477-23.346Z" transform="translate(-14954.392 -4193.196)" fill="#c595a2"/>
        <path id="Path_129" data-name="Path 129" d="M15328.146,4480.479l-264.742.041,24.23,155.229,71.605,42.965,78.746,42.041Z" transform="translate(-15063.404 -4193.689)" fill="#988ca6"/>
        <path id="Path_130" data-name="Path 130" d="M15324.648,4565.258l-257-3.853,34.648-136.748Z" transform="translate(-15059.331 -4281.028)" fill="#f8b38d"/>
        <path id="Path_131" data-name="Path 131" d="M15237.2,4643.669l-2.8-270.022-108.6,30.03Z" transform="translate(-14968.347 -4360.837)" fill="#809fb7"/>
        <path id="Path_132" data-name="Path 132" d="M15189.07,4386.752l113.922,235.9L15082.1,4477.373Z" transform="translate(-15036.718 -4340.333)" fill="#f8a18f"/>
      </g>
    </g>
    <path id="Path_133" data-name="Path 133" d="M14688.52,4485.579l80.907-127.6h222.712" transform="translate(-13200.603 -1485.857)" fill="none" stroke="#fff" stroke-width="2" opacity="0.44"/>
    <path id="Path_134" data-name="Path 134" d="M14688.52,4328.805l47.84,105.293h293.027" transform="translate(-13300.562 -1123.899)" fill="none" stroke="#fff" stroke-width="2" opacity="0.44"/>
    <path id="Path_135" data-name="Path 135" d="M14901.584,4328.805l-29.9,60.047H14688.52" transform="translate(-13728.991 -1153.922)" fill="none" stroke="#fff" stroke-width="2" opacity="0.44"/>
    <path id="Path_136" data-name="Path 136" d="M14251.244,4372.446l-69.415,47.378h-169.89" transform="translate(-13158.939 -1351)" fill="none" stroke="#fff" stroke-width="2" opacity="0.44"/>
    <path id="Path_137" data-name="Path 137" d="M14307.136,4256.986l-41.824-88.169h-195.555" transform="translate(-13158.939 -1351)" fill="none" stroke="#fff" stroke-width="2" opacity="0.44"/>
    <path id="Path_138" data-name="Path 138" d="M14434.754,4193.948v-61.755l154.3-66.127" transform="translate(-13158.939 -1351)" fill="none" stroke="#fff" stroke-width="2" opacity="0.44"/>
    <text id="_30_" data-name="30%" transform="translate(1388 3048)" fill="#fff" font-size="41" font-family="Helvetica-Bold, Helvetica" font-weight="700"><tspan x="0" y="0">30%</tspan></text>
    <text id="_25_" data-name="25%" transform="translate(1339 3188)" fill="#fff" font-size="34" font-family="Helvetica-Bold, Helvetica" font-weight="700"><tspan x="0" y="0">25%</tspan></text>
    <text id="_19_" data-name="19%" transform="translate(1164 3148)" fill="#fff" font-size="30" font-family="Helvetica-Bold, Helvetica" font-weight="700"><tspan x="0" y="0">19%</tspan></text>
    <text id="_12_" data-name="12%" transform="translate(1101 3023)" fill="#fff" font-size="24" font-family="Helvetica-Bold, Helvetica" font-weight="700"><tspan x="0" y="0">12%</tspan></text>
    <text id="_8_" data-name="8%" transform="translate(1157 2938)" fill="#fff" font-size="24" font-family="Helvetica-Bold, Helvetica" font-weight="700"><tspan x="0" y="0">8%</tspan></text>
    <text id="_6_" data-name="6%" transform="translate(1258 2886)" fill="#fff" font-size="24" font-family="Helvetica-Bold, Helvetica" font-weight="700"><tspan x="0" y="0">6%</tspan></text>
    <text id="Farming_Rewards" data-name="Farming Rewards" transform="translate(1583 2857)" fill="#fff" font-size="23" font-family="Poppins-Medium, Poppins" font-weight="500"><tspan x="0" y="0">Farming Rewards</tspan></text>
    <text id="private_sale_Giveaway" data-name="private sale + Giveaway" transform="translate(1294 2696)" fill="#fff" font-size="23" font-family="Poppins-Medium, Poppins" font-weight="500"><tspan x="0" y="0">private sale + Giveaway</tspan></text>
    <text id="Team_harvested_for_6_months" data-name="Team harvested for 6 months" transform="translate(738 2803)" fill="#fff" font-size="23" font-family="Poppins-Medium, Poppins" font-weight="500"><tspan x="0" y="0">Team harvested for 6 months</tspan></text>
    <text id="Marketing" transform="translate(843 3045)" fill="#fff" font-size="23" font-family="Poppins-Medium, Poppins" font-weight="500"><tspan x="0" y="0">Marketing</tspan></text>
    <text id="presale_Whitelisted_" data-name="presale ( Whitelisted )" transform="translate(809 3216)" fill="#fff" font-size="23" font-family="Poppins-Medium, Poppins" font-weight="500"><tspan x="0" y="0">presale ( Whitelisted )</tspan></text>
    <text id="liquidity" transform="translate(1628 3351)" fill="#fff" font-size="23" font-family="Poppins-Medium, Poppins" font-weight="500"><tspan x="0" y="0">liquidity</tspan></text>
  </g>
</svg>
